<svg xmlns="http://www.w3.org/2000/svg"
shape-rendering="geometricPrecision"
width="4000" height="4000" viewBox="0 0 623 623">
  <metadata>null</metadata>

<path d="
M 28.898 211.585
C 29.817 208.061 30.976 204.918 33.475 202.168
C 39.718 195.3 50.047 194.779 57.4 200.108
C 59.626 201.722 61.223 204.031 62.94 206.14
C 65.431 209.2 67.899 212.294 70.421 215.329
C 79.313 226.032 88.085 236.885 96.628 247.869
C 100.309 252.603 104.148 257.199 107.76 261.985
C 109.174 263.86 111.652 265.868 112.518 268.031
C 111.015 267.349 109.722 266.202 108.301 265.367
C 104.626 263.207 100.745 261.248 96.946 259.314
C 80.046 250.713 63.128 242.132 46.187 233.61
C 42.338 231.673 37.906 230.053 34.562 227.285
C 30.067 223.564 28.038 217.274 28.898 211.585 Z"
opacity="1" fill="rgb(246,178,10)" fill-rule="evenodd" />
<path d="
M 39.923 263.07
C 41.149 259.585 43.928 256.626 47.894 256.736
C 51.559 256.837 55.807 259.472 59.197 260.796
C 64.851 263.003 70.537 265.113 76.173 267.362
C 78.241 268.187 81.193 268.647 83.041 269.812
C 82.063 270.24 81.013 270.063 79.979 270.184
C 77.332 270.494 74.71 270.771 72.05 270.974
C 66.638 271.388 60.974 271.585 55.619 272.463
C 52.524 272.971 48.298 273.613 45.23 272.806
C 41.07 271.713 38.984 267.035 39.923 263.07 Z"
opacity="1" fill="rgb(246,177,8)" fill-rule="evenodd" />
<path d="
M 42.47 328.097
C 43.769 321.33 46.596 314.838 52.34 310.649
C 60.558 304.654 75.933 304.224 81.633 314.029
C 81.782 312.889 81.419 311.778 81.411 310.643
C 81.39 307.928 81.403 305.214 81.395 302.5
C 81.376 295.708 81.812 288.772 81.463 282.004
C 86.005 281.717 90.602 282.339 95.164 281.932
C 95.538 284.165 95.171 286.731 95.172 288.999
C 95.173 293.833 95.206 298.668 95.216 303.502
C 95.25 321.253 94.501 339.167 95.266 356.897
C 94.151 357.164 92.665 356.874 91.503 356.864
C 88.474 356.839 85.401 356.721 82.382 356.99
C 81.918 354.915 82.276 352.653 82.13 350.541
C 80.518 351.609 79.523 353.57 78.002 354.819
C 75.727 356.686 72.673 357.731 69.816 358.271
C 67.497 358.708 65.29 358.716 62.953 358.483
C 48.051 356.995 40.704 341.629 42.47 328.097 Z
M 55.938 331.616
C 55.581 336.608 57.593 342.148 61.885 344.96
C 66.932 348.267 74.67 347.47 78.722 342.928
C 80.741 340.664 81.583 337.622 81.797 334.651
C 82.151 329.747 81.07 324.576 77.196 321.235
C 71.715 316.507 62.828 317.939 58.551 323.498
C 56.822 325.747 56.137 328.834 55.938 331.616 Z"
opacity="1" fill="rgb(25,25,26)" fill-rule="evenodd" />
<path d="
M 64.346 391.557
C 65.268 388.685 67.208 385.992 70.209 385.072
C 73.401 384.093 77.162 384.691 80.466 384.556
C 88.231 384.24 95.994 383.836 103.76 383.528
C 106.693 383.411 109.622 383.202 112.554 383.085
C 113.585 383.045 115.117 382.539 116.05 383.087
C 115.285 383.872 113.705 384.086 112.716 384.594
C 110.106 385.932 107.494 387.275 104.882 388.613
C 98.587 391.837 92.243 394.945 85.98 398.23
C 82.194 400.215 78.13 403.204 73.857 403.998
C 67.08 405.257 62.976 397.116 64.346 391.557 Z"
opacity="1" fill="rgb(223,2,120)" fill-rule="evenodd" />
<path d="
M 79.407 422.084
C 81.038 415.542 88.565 411.662 93.754 407.933
C 104.764 400.02 115.286 391.167 125.778 382.595
C 125.461 384.21 124.282 385.609 123.571 387.077
C 121.326 391.717 118.598 395.963 115.962 400.379
C 111.499 407.856 107.273 415.463 102.954 423.023
C 101.135 426.207 99.529 430.186 96.872 432.772
C 92.639 436.891 85.294 435.899 81.687 431.446
C 79.591 428.857 78.878 425.339 79.407 422.084 Z"
opacity="1" fill="rgb(249,183,11)" fill-rule="evenodd" />
<path d="
M 88.935 205.581
C 89.545 203.672 90.294 201.93 91.795 200.53
C 96.842 195.821 104.331 198.462 107.113 204.197
C 108.433 206.917 107.67 211.079 107.652 214.044
C 107.607 221.28 107.447 228.511 107.462 235.743
C 107.468 238.24 107.281 240.729 107.394 243.224
C 107.422 243.842 107.896 245.332 107.524 245.871
C 105.526 243.667 104.219 239.748 102.846 237.089
C 99.537 230.677 96.166 224.232 92.631 217.941
C 90.432 214.027 87.901 210.266 88.935 205.581 Z"
opacity="1" fill="rgb(14,159,213)" fill-rule="evenodd" />
<path d="
M 103.405 307.848
C 105.812 307.816 108.425 308.161 110.805 307.859
C 110.195 303.298 111.132 298.481 110.764 293.874
C 115.053 293.459 119.397 293.598 123.701 293.193
C 124.057 294.332 123.768 295.803 123.767 296.994
C 123.765 299.327 123.786 301.662 123.809 303.996
C 123.819 304.964 123.472 307.082 123.968 307.853
C 127.638 307.604 131.393 307.799 135.073 307.813
C 135.342 311.475 134.558 315.26 134.896 318.942
C 131.381 318.668 127.609 318.687 124.108 319.073
C 123.368 320.739 123.911 323.652 123.909 325.476
C 123.906 330.166 123.737 334.892 123.939 339.579
C 124.033 341.774 124.189 344.26 125.976 345.799
C 127.533 347.14 129.871 347.17 131.796 346.751
C 132.591 346.578 134.269 345.82 134.941 346.295
C 135.188 349.507 135.95 353.159 135.627 356.363
C 134.535 357.637 130.986 358.165 129.381 358.335
C 123.425 358.964 116.555 357.925 113.165 352.346
C 110.828 348.499 111.158 343.821 111.17 339.502
C 111.19 332.689 111.092 325.863 111.169 319.056
C 110.831 318.662 109.53 318.844 109.002 318.835
C 107.183 318.804 104.894 319.141 103.145 318.712
C 103.074 315.217 103.124 311.717 103.031 308.224
C 103.156 308.099 103.281 307.974 103.405 307.848 Z"
opacity="1" fill="rgb(26,26,26)" fill-rule="evenodd" />
<path d="
M 117.906 421.558
C 121.389 412.688 124.134 403.356 126.92 394.255
C 127.811 393.51 127.626 396.013 127.706 396.787
C 128.016 399.764 128.519 402.715 128.841 405.69
C 129.341 410.314 130.182 414.927 130.931 419.516
C 131.331 421.967 132.016 424.387 130.762 426.706
C 126.845 433.95 115.552 429.506 117.906 421.558 Z"
opacity="1" fill="rgb(13,163,212)" fill-rule="evenodd" />
<path d="
M 123.878 272.72
C 128.517 264.735 133.975 257.037 139.024 249.283
C 147.677 235.993 156.159 222.59 164.746 209.256
C 168.513 203.407 172.306 197.57 176.009 191.68
C 178.687 187.421 180.982 182.673 185.007 179.498
C 196.997 170.037 215.293 173.889 221.089 188.391
C 222.098 190.915 222.702 193.728 222.732 196.449
C 222.764 199.379 222.222 202.483 221.175 205.222
C 217.912 213.752 209.766 217.611 202.428 222.184
C 188.311 230.983 174.499 240.279 160.415 249.135
C 152.274 254.255 144.114 259.381 136.098 264.693
C 132.976 266.762 129.872 268.862 126.775 270.965
C 126.356 271.249 124.264 273.372 123.878 272.72 Z"
opacity="1" fill="rgb(219,0,120)" fill-rule="evenodd" />
<path d="
M 124.352 217.522
C 125.468 215.249 127.105 213.261 129.533 212.343
C 133.985 210.661 139.231 213.835 140.139 218.365
C 140.843 221.879 138.991 224.528 137.581 227.568
C 135.024 233.083 132.664 238.688 130.083 244.195
C 129.18 246.121 128.391 248.099 127.505 250.027
C 127.204 250.681 127.064 251.716 126.486 252.163
C 125.762 248.732 125.913 244.844 125.748 241.337
C 125.536 236.842 124.986 232.359 124.709 227.864
C 124.512 224.672 123.312 220.597 124.352 217.522 Z"
opacity="1" fill="rgb(221,3,123)" fill-rule="evenodd" />
<path d="
M 126.931 183.102
C 128.464 168.601 149.559 166.271 154.213 180.063
C 154.911 182.132 155.1 184.271 154.864 186.438
C 153.928 195.028 144.956 200.744 136.714 198.326
C 132.361 197.049 129.127 193.594 127.622 189.387
C 126.912 187.401 126.71 185.194 126.931 183.102 Z"
opacity="1" fill="rgb(221,0,120)" fill-rule="evenodd" />
<path d="
M 135.812 385.348
C 142.192 388.413 148.388 392.159 154.689 395.434
C 168.616 402.671 182.685 409.767 196.309 417.568
C 200.277 419.841 205.417 421.757 208.696 424.989
C 211.981 428.227 213.293 433.589 212.689 438.062
C 210.95 450.927 195.815 456.034 185.981 448.21
C 182.643 445.555 180.167 441.545 177.608 438.167
C 173.486 432.725 169.115 427.473 164.974 422.044
C 158.724 413.851 152.118 405.933 145.631 397.929
C 142.273 393.785 138.108 389.673 135.395 385.095
C 135.534 385.18 135.673 385.264 135.812 385.348 Z"
opacity="1" fill="rgb(13,166,212)" fill-rule="evenodd" />
<path d="
M 141.465 348.094
C 141.991 345.464 145.403 342.645 147.142 340.642
C 151.774 335.31 156.614 330.078 161.022 324.559
C 162.035 323.291 163.071 322.03 164.121 320.792
C 164.669 320.145 165.569 319.71 165.835 318.898
C 163.307 319.499 160.1 318.938 157.506 318.936
C 152.821 318.932 147.666 319.495 143.038 318.851
C 142.822 315.348 142.997 311.768 142.964 308.245
C 143.811 307.608 144.967 307.841 146.004 307.845
C 148.505 307.854 151.005 307.859 153.506 307.856
C 163.222 307.846 172.971 307.662 182.679 307.989
C 182.725 311.133 183.2 314.725 182.805 317.825
C 177.03 323.913 171.707 330.424 166.145 336.711
C 163.622 339.564 159.984 342.503 158.186 345.864
C 158.453 346.183 159.405 345.865 159.775 345.829
C 161.336 345.68 162.935 345.744 164.502 345.75
C 170.921 345.772 177.345 345.877 183.764 345.841
C 184.367 349.398 183.518 353.297 183.827 356.907
C 174.385 356.875 164.946 356.798 155.503 356.861
C 150.864 356.891 145.919 357.439 141.323 357.095
C 141.493 354.103 141.339 351.091 141.465 348.094 Z"
opacity="1" fill="rgb(25,25,25)" fill-rule="evenodd" />
<path d="
M 143.922 435.591
C 144.978 425.941 159.451 427.81 158.784 437.1
C 158.08 446.901 142.871 445.195 143.922 435.591 Z"
opacity="1" fill="rgb(11,162,214)" fill-rule="evenodd" />
<path d="
M 152.345 384.598
C 154.854 384.317 157.477 384.632 160.008 384.621
C 168.003 384.585 176.004 384.729 184.001 384.751
C 187.624 384.76 191.248 384.752 194.871 384.769
C 196.778 384.779 198.951 384.535 200.802 385.07
C 209.517 387.591 209.93 401.58 200.909 403.928
C 195.867 405.24 190.583 401.453 186.119 399.588
C 178.291 396.318 170.464 392.935 162.746 389.413
C 159.276 387.83 155.914 385.978 152.26 384.851
C 152.288 384.767 152.316 384.682 152.345 384.598 Z"
opacity="1" fill="rgb(19,159,200)" fill-rule="evenodd" />
<path d="
M 175.01 258.006
C 183.611 254.19 191.94 249.479 200.268 245.083
C 204.293 242.959 208.819 239.445 213.567 240.07
C 222.852 241.292 224.309 254.315 216.197 258.178
C 212.957 259.722 207.882 258.656 204.385 258.569
C 197.094 258.386 189.798 258.553 182.506 258.405
C 180.058 258.355 177.08 259.036 174.723 258.489
C 174.818 258.328 174.914 258.167 175.01 258.006 Z"
opacity="1" fill="rgb(8,162,214)" fill-rule="evenodd" />
<path d="
M 191.442 326.104
C 191.516 325.483 191.491 325.849 191.472 325.002
C 194.174 324.529 197.182 324.922 199.923 324.929
C 205.289 324.941 210.647 324.914 216.01 325.013
C 217.84 325.047 219.671 325.027 221.5 325.023
C 222.151 325.022 223.225 324.775 223.712 325.245
C 223.709 328.159 223.63 331.074 223.643 333.99
C 223.645 334.438 223.875 336.686 223.484 336.835
C 212.79 337.275 202.032 336.611 191.345 337.098
C 191.581 333.445 191.238 329.762 191.442 326.104 Z"
opacity="1" fill="rgb(27,27,27)" fill-rule="evenodd" />
<path d="
M 235.826 284.257
C 238.66 283.907 241.647 284.096 244.503 284.101
C 246.272 284.103 248.187 283.86 249.926 284.216
C 250.563 304.124 250.563 324.268 250.201 344.199
C 260.866 343.658 272.004 343.813 282.673 344.285
C 282.72 347.183 282.674 350.096 282.696 353
C 282.706 354.281 282.446 355.944 282.778 357.172
C 267.155 356.812 251.395 358.064 235.796 357.252
C 236.222 343.357 235.822 329.4 235.853 315.498
C 235.875 305.148 236.492 294.584 235.826 284.257 Z"
opacity="1" fill="rgb(253,184,14)" fill-rule="evenodd" />
<path d="
M 289.884 289.067
C 290.197 287.873 290.77 286.688 291.522 285.71
C 297.463 277.99 308.253 285.321 306.085 293.874
C 305.799 295.005 305.022 296.066 304.234 296.907
C 298.448 303.082 287.685 297.468 289.884 289.067 Z"
opacity="1" fill="rgb(250,182,13)" fill-rule="evenodd" />
<path d="
M 290.896 308.454
C 290.96 308.327 291.024 308.2 291.088 308.073
C 295.442 308.021 299.81 307.912 304.161 308.02
C 304.607 309.389 304.387 311.061 304.39 312.495
C 304.394 314.996 304.407 317.497 304.415 319.998
C 304.441 328.257 304.597 336.514 304.605 344.767
C 304.608 347.915 304.617 351.064 304.682 354.212
C 304.692 354.688 304.458 356.771 304.786 357.092
C 300.166 357.181 295.481 357.044 290.854 357.087
C 291.153 347.741 290.942 338.347 290.94 328.995
C 290.939 322.154 291.283 315.288 290.896 308.454 Z"
opacity="1" fill="rgb(249,181,13)" fill-rule="evenodd" />
<path d="
M 319.291 283.908
C 326.511 283.888 333.742 283.861 340.966 283.915
C 350.178 283.984 359.465 284.407 367.477 289.543
C 389.313 303.538 388.055 340.019 365.278 352.421
C 351.444 359.954 334.303 356.919 319.208 357.198
C 319.647 340.166 319.266 323.05 319.245 306.009
C 319.236 298.737 318.644 291.144 319.291 283.908 Z
M 333.636 297.207
C 334.114 304.065 333.692 311.121 333.714 318.003
C 333.741 326.703 334.138 335.497 333.772 344.187
C 334.377 344.664 336.197 344.259 337.001 344.265
C 339.878 344.286 342.756 344.344 345.633 344.302
C 352.713 344.197 359.798 341.595 364.016 335.62
C 373.309 322.459 367.727 300.109 350.514 297.43
C 347.071 296.895 343.484 297.055 340.01 297.061
C 337.916 297.065 335.7 296.829 333.636 297.207 Z"
opacity="1" fill="rgb(252,183,17)" fill-rule="evenodd" />
<path d="
M 388.427 348.593
C 389.486 341.385 398.701 338.91 403.197 344.711
C 404.667 346.608 405.094 349.095 404.804 351.435
C 404.138 356.798 397.935 359.814 393.152 357.606
C 389.779 356.048 387.892 352.239 388.427 348.593 Z"
opacity="1" fill="rgb(25,24,24)" fill-rule="evenodd" />
<path d="
M 411.472 329.602
C 412.004 326.101 412.745 322.684 414.456 319.537
C 420.047 309.257 431.711 304.763 442.97 306.914
C 447.067 307.697 452.38 309.751 455.077 313.106
C 454.901 314.134 453.806 314.903 453.139 315.659
C 451.424 317.6 449.704 320.671 447.469 321.986
C 446.245 321.618 445.258 320.317 444.082 319.731
C 441.26 318.325 437.905 318.068 434.848 318.767
C 422.603 321.568 421.483 340.749 432.699 345.666
C 436.683 347.412 441.096 346.927 444.875 344.933
C 446.022 344.328 446.876 343.296 447.984 342.687
C 450.285 345.644 453.033 348.2 455.574 350.936
C 455.601 352.371 452.312 354.119 451.209 354.77
C 446.232 357.71 440.089 358.897 434.364 358.272
C 419.799 356.681 409.93 344.146 411.472 329.602 Z"
opacity="1" fill="rgb(25,25,25)" fill-rule="evenodd" />
<path d="
M 458.974 329.099
C 459.861 321.51 464.044 314.707 470.436 310.533
C 484.025 301.66 504.319 307.721 509.587 323.219
C 510.964 327.272 511.331 331.751 510.818 335.988
C 510.046 342.369 506.777 348.786 501.628 352.736
C 488.047 363.152 465.718 358.389 460.168 341.423
C 458.876 337.473 458.492 333.218 458.974 329.099 Z
M 472.43 329.59
C 471.531 335.04 473.323 341.783 478.19 344.877
C 486.074 349.89 495.902 344.683 497.37 335.854
C 498.238 330.629 497.059 324.269 492.765 320.77
C 484.845 314.318 473.946 320.408 472.43 329.59 Z"
opacity="1" fill="rgb(25,25,25)" fill-rule="evenodd" />
<path d="
M 519.944 307.83
C 521.132 307.412 522.712 307.693 523.966 307.702
C 526.695 307.72 529.816 307.34 532.496 307.867
C 532.533 309.822 532.929 312 532.473 313.923
C 533.325 313.457 533.888 312.225 534.53 311.501
C 535.582 310.314 536.996 309.3 538.395 308.567
C 544.213 305.518 552.519 305.6 557.875 309.635
C 559.678 310.993 560.77 312.781 562.023 314.584
C 563.824 312.669 564.956 310.477 567.355 309.125
C 575.915 304.298 588.631 305.808 593.123 315.431
C 596.55 322.772 594.946 332.636 594.936 340.509
C 594.93 344.508 594.893 348.508 594.933 352.507
C 594.945 353.598 595.477 355.894 594.903 356.815
C 590.613 356.738 586.236 356.523 581.957 356.899
C 581.53 356.315 581.737 355.226 581.745 354.513
C 581.77 352.344 581.722 350.173 581.713 348.004
C 581.692 342.583 581.622 337.163 581.607 331.742
C 581.599 328.786 581.903 325.156 580.415 322.491
C 577.091 316.538 567.482 316.93 564.912 323.485
C 563.551 326.955 564.192 331.498 564.211 335.152
C 564.25 342.265 563.545 349.837 564.325 356.897
C 559.911 356.533 555.342 356.802 550.921 356.952
C 550.442 349.021 550.806 340.955 550.772 333.007
C 550.755 328.988 551.223 324.34 548.553 320.988
C 544.729 316.188 536.324 318.036 534.082 323.496
C 532.739 326.767 533.362 331.217 533.367 334.678
C 533.374 339.62 533.399 344.562 533.406 349.504
C 533.408 351.933 533.124 354.566 533.422 356.968
C 529.125 356.645 524.481 356.534 520.193 356.971
C 519.783 355.616 519.973 353.879 519.938 352.464
C 519.856 349.146 519.972 345.82 519.935 342.501
C 519.806 330.947 520.144 319.379 519.944 307.83 Z"
opacity="1" fill="rgb(24,24,24)" fill-rule="evenodd" />

</svg>