<svg width="1600" height="700" viewBox="0 0 1600 700" fill="none" xmlns="http://www.w3.org/2000/svg">
  <defs>
    <linearGradient id="bg" x1="0" y1="0" x2="1600" y2="700" gradientUnits="userSpaceOnUse">
      <stop stop-color="#2A2736"/>
      <stop offset="0.55" stop-color="#403C54"/>
      <stop offset="1" stop-color="#57506A"/>
    </linearGradient>
    <radialGradient id="blob1" cx="0" cy="0" r="1" gradientUnits="userSpaceOnUse" gradientTransform="translate(1410 90) rotate(132.5) scale(420 340)">
      <stop stop-color="#F4A4BB" stop-opacity="0.35"/>
      <stop offset="1" stop-color="#F4A4BB" stop-opacity="0"/>
    </radialGradient>
    <radialGradient id="blob2" cx="0" cy="0" r="1" gradientUnits="userSpaceOnUse" gradientTransform="translate(170 660) rotate(-28) scale(340 250)">
      <stop stop-color="#F8B5C9" stop-opacity="0.25"/>
      <stop offset="1" stop-color="#F8B5C9" stop-opacity="0"/>
    </radialGradient>
    <linearGradient id="desk" x1="0" y1="0" x2="1280" y2="0" gradientUnits="userSpaceOnUse">
      <stop stop-color="#ECE8E2"/>
      <stop offset="1" stop-color="#F4F1EC"/>
    </linearGradient>
    <linearGradient id="sheet" x1="0" y1="0" x2="760" y2="500" gradientUnits="userSpaceOnUse">
      <stop stop-color="#FFFEFD"/>
      <stop offset="1" stop-color="#F8F4EE"/>
    </linearGradient>
    <linearGradient id="pen" x1="0" y1="0" x2="330" y2="120" gradientUnits="userSpaceOnUse">
      <stop stop-color="#1E1D25"/>
      <stop offset="1" stop-color="#393645"/>
    </linearGradient>
    <filter id="softShadow" x="0" y="0" width="2000" height="1200" filterUnits="userSpaceOnUse" color-interpolation-filters="sRGB">
      <feDropShadow dx="0" dy="18" stdDeviation="16" flood-color="#1E1A26" flood-opacity="0.26"/>
    </filter>
  </defs>

  <rect width="1600" height="700" fill="url(#bg)"/>
  <ellipse cx="1410" cy="90" rx="420" ry="340" fill="url(#blob1)"/>
  <ellipse cx="170" cy="660" rx="340" ry="250" fill="url(#blob2)"/>

  <g transform="translate(95 115)" filter="url(#softShadow)">
    <rect x="0" y="220" width="1410" height="320" rx="30" fill="url(#desk)"/>

    <g transform="translate(245 35) rotate(7)">
      <rect x="0" y="0" width="760" height="500" rx="20" fill="url(#sheet)"/>
      <rect x="40" y="76" width="450" height="12" rx="6" fill="#E8DFD5"/>
      <rect x="40" y="112" width="520" height="10" rx="5" fill="#EDE3D9"/>
      <rect x="40" y="147" width="480" height="10" rx="5" fill="#EDE3D9"/>
      <rect x="40" y="182" width="530" height="10" rx="5" fill="#EDE3D9"/>
      <rect x="40" y="217" width="390" height="10" rx="5" fill="#EDE3D9"/>
      <path d="M40 268H692" stroke="#DCCFBE" stroke-width="2"/>
      <path d="M40 306H692" stroke="#DCCFBE" stroke-width="2"/>
      <path d="M40 344H692" stroke="#DCCFBE" stroke-width="2"/>
      <path d="M40 382H692" stroke="#DCCFBE" stroke-width="2"/>
      <path d="M40 420H692" stroke="#DCCFBE" stroke-width="2"/>
    </g>

    <g transform="translate(720 105) rotate(29)">
      <rect x="0" y="0" width="360" height="44" rx="22" fill="url(#pen)"/>
      <rect x="280" y="0" width="52" height="44" rx="12" fill="#565063"/>
      <path d="M360 22L408 10V34L360 22Z" fill="#C9C5BC"/>
      <path d="M408 10L434 22L408 34V10Z" fill="#F2EEE7"/>
      <circle cx="115" cy="22" r="7" fill="#6A667A"/>
    </g>

    <path d="M330 430C390 392 470 470 540 430C600 394 660 452 744 430" stroke="#3A3437" stroke-width="6" stroke-linecap="round" opacity="0.45"/>
  </g>
</svg>
