<svg xmlns="http://www.w3.org/2000/svg" width="1275" height="364" viewBox="0 0 1275 364" role="img" aria-label="DTZ-LiD edu logo">
  <defs>
    <linearGradient id="bookGold" x1="0" y1="0" x2="1" y2="0">
      <stop offset="0%" stop-color="#f4b400"/>
      <stop offset="100%" stop-color="#ffcc4d"/>
    </linearGradient>
  </defs>

  <!-- Icon -->
  <g transform="translate(32,22)">
    <circle cx="160" cy="160" r="136" fill="none" stroke="#2f3137" stroke-width="8"/>

    <path d="M64 198 Q160 146 256 198" fill="none" stroke="#2f3137" stroke-width="8"/>

    <path d="M82 176 Q141 151 160 176 L160 220 Q132 205 82 220 Z" fill="#1f2329"/>
    <path d="M82 220 Q132 205 160 220 L160 235 Q132 224 82 236 Z" fill="url(#bookGold)"/>

    <path d="M160 176 Q179 151 238 176 L238 220 Q188 205 160 220 Z" fill="#e53935"/>
    <path d="M160 220 Q188 205 238 220 L238 235 Q188 224 160 235 Z" fill="url(#bookGold)"/>

    <polygon points="114,103 206,103 236,127 84,127" fill="#2f3137"/>
    <rect x="136" y="127" width="48" height="16" fill="#2f3137"/>
    <line x1="122" y1="127" x2="122" y2="160" stroke="#2f3137" stroke-width="5"/>
    <circle cx="122" cy="164" r="5" fill="#2f3137"/>
  </g>

  <!-- Wordmark -->
  <g transform="translate(350,210)">
    <text x="0" y="0" fill="#2f3137" font-size="130" font-weight="700" font-family="Avenir Next, Montserrat, Poppins, Arial, sans-serif" letter-spacing="0.5">DTZ-LiD</text>
    <text x="615" y="0" fill="#f29b13" font-size="88" font-weight="500" font-family="Avenir Next, Montserrat, Poppins, Arial, sans-serif">edu</text>
  </g>
</svg>
