<svg xmlns="http://www.w3.org/2000/svg" width="1275" height="364" viewBox="0 0 1275 364" role="img" aria-label="DTZ-LiD edu logo">
  <defs>
    <linearGradient id="goldEdge" x1="0" y1="0" x2="1" y2="0">
      <stop offset="0%" stop-color="#f6b20a"/>
      <stop offset="100%" stop-color="#ffd25c"/>
    </linearGradient>
  </defs>

  <!-- Clean icon -->
  <g transform="translate(36,24)">
    <circle cx="158" cy="158" r="132" fill="none" stroke="#2f3137" stroke-width="8"/>

    <path d="M76 206 Q158 160 240 206" fill="none" stroke="#2f3137" stroke-width="7" stroke-linecap="round"/>

    <path d="M86 186 Q130 166 158 186 L158 224 Q124 208 86 224 Z" fill="#23262d"/>
    <path d="M86 224 Q124 208 158 224 L158 236 Q122 224 86 238 Z" fill="url(#goldEdge)"/>

    <path d="M158 186 Q186 166 230 186 L230 224 Q192 208 158 224 Z" fill="#e03a36"/>
    <path d="M158 224 Q192 208 230 224 L230 238 Q194 224 158 236 Z" fill="url(#goldEdge)"/>

    <path d="M108 104 L158 86 L208 104 L158 122 Z" fill="#2f3137"/>
    <path d="M118 126 L158 142 L198 126 L198 142 L158 158 L118 142 Z" fill="#2f3137"/>

    <line x1="108" y1="104" x2="108" y2="136" stroke="#2f3137" stroke-width="4" stroke-linecap="round"/>
    <circle cx="108" cy="140" r="4" fill="#2f3137"/>
  </g>

  <!-- Wordmark -->
  <g transform="translate(346,212)">
    <text x="0" y="0" fill="#2f3137" font-size="130" font-weight="700" font-family="Avenir Next, Montserrat, Poppins, Arial, sans-serif" letter-spacing="0.5">DTZ-LiD</text>
    <text x="560" y="0" fill="#f29b13" font-size="88" font-weight="500" font-family="Avenir Next, Montserrat, Poppins, Arial, sans-serif">edu</text>
  </g>
</svg>
